<?xml version="1.0" encoding="UTF-8"?>
<svg width="247px" height="246px" viewBox="0 0 247 246" version="1.1" xmlns="http://www.w3.org/2000/svg" xmlns:xlink="http://www.w3.org/1999/xlink">
    <!-- Generator: Sketch 52.4 (67378) - http://www.bohemiancoding.com/sketch -->
    <title>Path</title>
    <desc>Created with Sketch.</desc>
    <g id="Page-1" stroke="none" stroke-width="1" fill="none" fill-rule="evenodd">
        <g id="close" fill="#FFFFFF">
            <path d="M23.949,245.4552 C30.1131,245.4552 36.027,243.0138 40.398,238.67 L123,154.9 L205.602,238.67 C211.684,244.7559 220.555,247.1309 228.868,244.9044 C237.1805,242.6778 243.677,236.1817 245.903,227.8694 C248.1296,219.5569 245.75456,210.6854 239.6686,204.6034 L155.8986,122.0014 L239.6686,39.3994 C244.8131,33.3955 246.5631,25.1884 244.3209,17.6064 C242.0787,10.0244 236.1451,4.0904 228.5629,1.8484 C220.977,-0.3938 212.7739,1.35621 206.7659,6.5007 L122.9999,89.1027 L40.3979,6.5007 C34.394,1.3562 26.1869,-0.3938 18.6049,1.8484 C11.0229,4.0906 5.0889,10.0242 2.8469,17.6064 C0.6047,25.1884 2.35471,33.3954 7.4992,39.3994 L90.1012,122.0014 L7.4992,204.6034 C2.7883,209.0136 0.1125,215.1814 0.1125,221.6344 C0.1125,228.0914 2.7883,234.2554 7.4992,238.6694 C11.8711,243.0138 17.785,245.4552 23.949,245.4552 Z" id="Path"></path>
        </g>
    </g>
</svg>