<svg xmlns="http://www.w3.org/2000/svg" viewBox="0 0 513.34 513.34"><title>Asset 1</title><path d="M267.17,280l18.43,39,42,6.54a11.66,11.66,0,0,1,6.54,19.6l-30.8,30.8,7.23,44.1a11.67,11.67,0,0,1-17.27,12.13l-36.63-20.77L220,431.67A11.67,11.67,0,0,1,202.77,420L210,375.9l-30.8-31.73a11.67,11.67,0,0,1,7.47-19.61l42-6.53,17.5-38a11.67,11.67,0,0,1,21,0Z" fill="#fff"/><path d="M490,233.34H23.34A23.35,23.35,0,0,1,0,210V116.67a70,70,0,0,1,70-70H443.34a70,70,0,0,1,70,70V210A23.34,23.34,0,0,1,490,233.34ZM46.67,186.67h420v-70a23.34,23.34,0,0,0-23.33-23.33H70a23.32,23.32,0,0,0-23.33,23.33Z" fill="#fff"/><path d="M396.67,140a23.32,23.32,0,0,1-23.33-23.33V23.33a23.33,23.33,0,0,1,46.66,0v93.34A23.32,23.32,0,0,1,396.67,140Z" fill="#fff"/><path d="M116.67,140a23.32,23.32,0,0,1-23.33-23.33V23.33a23.33,23.33,0,0,1,46.66,0v93.34A23.32,23.32,0,0,1,116.67,140Z" fill="#fff"/><path d="M443.34,513.34H70a70,70,0,0,1-70-70V210a23.34,23.34,0,0,1,23.34-23.33H490A23.32,23.32,0,0,1,513.33,210V443.34a70,70,0,0,1-70,70Zm-396.67-280v210A23.35,23.35,0,0,0,70,466.67H443.34a23.34,23.34,0,0,0,23.33-23.33v-210Z" fill="#fff"/></svg>