<svg xmlns="http://www.w3.org/2000/svg" viewBox="0 0 373.52 373.52"><title>Asset 2</title><path d="M303.52,0H70A70.06,70.06,0,0,0,0,70V303.52a70.06,70.06,0,0,0,70,70H303.52a70.06,70.06,0,0,0,70-70V70a70.06,70.06,0,0,0-70-70ZM70,28H303.52a42.06,42.06,0,0,1,42,42V92.06H28V70A42.06,42.06,0,0,1,70,28ZM303.52,345.52H70a42.06,42.06,0,0,1-42-42V120.06H345.52V303.52a42.06,42.06,0,0,1-42,42Z" fill="#fff"/><path d="M196.05,164.58l16.39,34.64L249.78,205a10.38,10.38,0,0,1,5.81,17.43l-27.38,27.38,6.42,39.21a10.36,10.36,0,0,1-15.35,10.78l-32.56-18.46-32.57,18.05a10.37,10.37,0,0,1-15.35-10.37l6.42-39.21-27.38-28.21a10.37,10.37,0,0,1,6.64-17.43l37.34-5.81,15.56-33.81a10.37,10.37,0,0,1,18.67,0Z" fill="#fff"/></svg>