<svg xmlns="http://www.w3.org/2000/svg" viewBox="0 0 76.19 18.91"><title>Asset 4</title><path d="M5.48,4.71a.09.09,0,0,1,.1-.09.1.1,0,0,1,.1.1,14.73,14.73,0,0,0,.25,3.35,12,12,0,0,1,.22,2.64C6,13.06,4.79,14.27,3.52,15.54l-.09.09a1,1,0,0,0-.3.89c0,.05,0,.12.05.18a4.82,4.82,0,0,1,.13.79.1.1,0,0,1-.2,0c0-.15,0-.16-.07,0A.83.83,0,0,0,3,18a1,1,0,0,0,.44.48h0a1.33,1.33,0,0,0,.24.11,1.52,1.52,0,0,0,1.11,0,2.75,2.75,0,0,0,1.11-.83,8.45,8.45,0,0,0,.84-1.27,19.43,19.43,0,0,0,.89-1.84,8.5,8.5,0,0,0,.45-1.38A7.8,7.8,0,0,0,8.31,12a16.56,16.56,0,0,0-.07-3A11.62,11.62,0,0,1,8.4,4.76a.11.11,0,0,1,.13-.08.11.11,0,0,1,.07.13A8.74,8.74,0,0,0,8.34,7.7a14.35,14.35,0,0,0,2.75-.5L11.8,7h0a4,4,0,0,0,1.76-1.11.53.53,0,0,0,0-.63,2,2,0,0,0-.83-.58A16.45,16.45,0,0,0,7,3.79a15.31,15.31,0,0,0-5.49.81,2,2,0,0,0-.81.59.59.59,0,0,0,0,.66A3.47,3.47,0,0,0,2.16,7a10.38,10.38,0,0,0,3.52.81,12.89,12.89,0,0,1-.2-3Zm1.87,9.56a.06.06,0,0,1-.08,0,.06.06,0,0,1,0-.08,8.19,8.19,0,0,0,.33-1,8.15,8.15,0,0,0,.15-.93.06.06,0,0,1,.07-.06s.06,0,.06.07a8.48,8.48,0,0,1-.15.95,6.67,6.67,0,0,1-.34,1Zm1.48-8.5a.07.07,0,0,1,0-.09.07.07,0,0,1,.08,0,2.75,2.75,0,0,1,.19.69,2.84,2.84,0,0,1,0,.71.07.07,0,0,1-.07.06A.08.08,0,0,1,9,7.1a2.54,2.54,0,0,0,0-.67,3,3,0,0,0-.18-.66ZM10.06,7a.07.07,0,0,1-.13,0,1.87,1.87,0,0,0-.14-.68,2.26,2.26,0,0,0-.41-.63.06.06,0,0,1,0-.09.07.07,0,0,1,.09,0,2.29,2.29,0,0,1,.43.67,1.78,1.78,0,0,1,.15.74ZM11,6.68a.07.07,0,0,1-.07.07s-.07,0-.07-.06a1.24,1.24,0,0,0-.27-.75A2.16,2.16,0,0,0,10,5.43a.06.06,0,0,1,0-.09.08.08,0,0,1,.09,0,2.16,2.16,0,0,1,.65.55,1.39,1.39,0,0,1,.31.82Zm1-.48a.07.07,0,0,1-.05.08.06.06,0,0,1-.08,0,1.3,1.3,0,0,0-.41-.62,2.45,2.45,0,0,0-.82-.46.06.06,0,0,1,0-.08.07.07,0,0,1,.08,0,2.65,2.65,0,0,1,.87.48A1.46,1.46,0,0,1,12,6.2Zm.78-.47a.08.08,0,0,1-.05.08.06.06,0,0,1-.08,0,1.1,1.1,0,0,0-.47-.58,3.08,3.08,0,0,0-1-.4.07.07,0,0,1,0-.08.07.07,0,0,1,.08,0,3.23,3.23,0,0,1,1.07.42,1.22,1.22,0,0,1,.53.66Zm-7.7,0a.07.07,0,1,1,.13,0A3,3,0,0,0,5,6.43,2.54,2.54,0,0,0,5,7.1a.07.07,0,1,1-.14,0,3.41,3.41,0,0,1,0-.71,4,4,0,0,1,.19-.69ZM4.08,7A.07.07,0,0,1,4,7S3.94,7,3.94,7a2,2,0,0,1,.15-.74,2.57,2.57,0,0,1,.44-.67.07.07,0,0,1,.09,0,.06.06,0,0,1,0,.09,2.21,2.21,0,0,0-.4.63A1.53,1.53,0,0,0,4.08,7Zm-.92-.27a.07.07,0,1,1-.13,0,1.33,1.33,0,0,1,.31-.82A2.25,2.25,0,0,1,4,5.31a.09.09,0,0,1,.1,0,.08.08,0,0,1,0,.09,2.16,2.16,0,0,0-.61.51,1.31,1.31,0,0,0-.28.75Zm-1-.46A.07.07,0,1,1,2,6.2a1.46,1.46,0,0,1,.45-.69A2.51,2.51,0,0,1,3.35,5a.08.08,0,0,1,.09,0,.06.06,0,0,1,0,.08,2.45,2.45,0,0,0-.82.46,1.3,1.3,0,0,0-.41.62Zm-.78-.47a.07.07,0,0,1-.13,0,1.24,1.24,0,0,1,.52-.66,3.41,3.41,0,0,1,1.07-.42.06.06,0,0,1,.08,0,.06.06,0,0,1-.05.08,2.93,2.93,0,0,0-1,.4,1.1,1.1,0,0,0-.47.58Zm12.48-.38a1.64,1.64,0,0,0,.1-.49,2.16,2.16,0,0,0-.45-1.34l-.23-.28a4.73,4.73,0,0,0-1.71-1.13L11.15,2h0a9.47,9.47,0,0,0-2.06-.43A.1.1,0,0,1,9,1.43a.12.12,0,0,1,.11-.09,9.32,9.32,0,0,1,1.84.36,3.28,3.28,0,0,0-1.41-1A6.86,6.86,0,0,0,6.91.2,4.55,4.55,0,0,0,3.62,1.35a8.72,8.72,0,0,1-.84.6A7.45,7.45,0,0,1,3.86,1.8.1.1,0,0,1,4,1.89a.12.12,0,0,1-.1.11A7.05,7.05,0,0,0,2,2.39l-.34.14a3.18,3.18,0,0,0-.57.34A2,2,0,0,0,.21,4.68a1.89,1.89,0,0,0,.19.75.79.79,0,0,1,.13-.35,2.13,2.13,0,0,1,.9-.66A15.33,15.33,0,0,1,7,3.59a16.46,16.46,0,0,1,5.84.88,2.11,2.11,0,0,1,.91.65.68.68,0,0,1,.12.26Zm-2,1.77h0l-.73.23a14.78,14.78,0,0,1-2.79.51c0,.35.06.71.09,1.07a16.82,16.82,0,0,1,.07,3,7.86,7.86,0,0,1-.21,1.32,8.33,8.33,0,0,1-.47,1.41,17.64,17.64,0,0,1-.9,1.86,7.82,7.82,0,0,1-.86,1.31,3,3,0,0,1-1.19.89,1.74,1.74,0,0,1-1.25,0,1.69,1.69,0,0,1-.27-.13h0a1.17,1.17,0,0,1-.53-.58,1,1,0,0,1,0-.7,1.51,1.51,0,0,1,.09-.18.83.83,0,0,0,0-.52,1.16,1.16,0,0,1,.33-1.2c.37-.37-.13.12.09-.09C4.62,14.16,5.8,13,6,10.7a11.67,11.67,0,0,0-.22-2.6l0-.14a10.49,10.49,0,0,1-3.63-.83h0l-.43-.22A2.81,2.81,0,0,1,0,4.69a2.16,2.16,0,0,1,.93-2,3.29,3.29,0,0,1,.6-.36h0l.34-.14a8,8,0,0,0,1.61-1A4.71,4.71,0,0,1,6.91,0,7.09,7.09,0,0,1,9.6.48,3.36,3.36,0,0,1,11.24,1.8l.42.16a4.83,4.83,0,0,1,1.78,1.18l.24.29a2.36,2.36,0,0,1,.49,1.47,1.94,1.94,0,0,1-.69,1.37l-.24.19a5.85,5.85,0,0,1-1.37.69Z" fill="#fff"/><text transform="translate(19.02 12.07)" font-size="9" fill="#fff" font-family="Choplin-ExtraLight-DEMO, Choplin"><tspan letter-spacing="-0.01em">j</tspan><tspan x="2.32" y="0" letter-spacing="-0.03em">o</tspan><tspan x="7.43" y="0" letter-spacing="-0.03em">i</tspan><tspan x="10.3" y="0" letter-spacing="-0.02em">n</tspan><tspan x="16.4" y="0" letter-spacing="-0.01em">r</tspan><tspan x="20.12" y="0" letter-spacing="-0.01em">a</tspan><tspan x="26.07" y="0" letter-spacing="-0.04em">v</tspan><tspan x="31.26" y="0" letter-spacing="0em">e.</tspan><tspan x="37.78" y="0">c</tspan><tspan x="42.88" y="0" letter-spacing="-0.03em">o</tspan><tspan x="47.99" y="0">m</tspan></text></svg>