<svg xmlns="http://www.w3.org/2000/svg" fill="#fff" viewBox="0 0 619.2 681.9"><title>Asset 1</title><path d="M102,681.9c-18,0-34.8-4.8-51.6-14.4C19.2,649.5,0,617.1,0,579.9V102.3C0,65.1,19.2,32.7,51.6,13.5c32.4-18,69.6-18,102,0l414,238.8c32.4,18,51.6,51.6,51.6,88.8S600,410.7,567.6,429.9l-414,238.8C136.8,677.1,120,681.9,102,681.9Zm0-621.6c-7.2,0-14.4,2.4-21.6,6a41.92,41.92,0,0,0-21.6,36V579.9a40.48,40.48,0,0,0,21.6,36,43.53,43.53,0,0,0,42,0L537.6,377.1a40.8,40.8,0,0,0,0-72L123.6,66.3c-7.21-4.8-14.4-6-21.6-6Z"/></svg>