
<svg viewBox="0 0 402.7 402.7" version="1.1" xmlns="http://www.w3.org/2000/svg" >
	<path d="M218.43,403.21C107.24,403.21,17.08,313,17.08,201.86S107.24.51,218.43.51,419.78,90.68,419.78,201.86V344a59.19,59.19,0,0,1-59.22,59.21H218.43Zm0-367.69a166.34,166.34,0,0,0,0,332.67H365.19a19.54,19.54,0,0,0,19.58-19.58V201.86A166.34,166.34,0,0,0,218.44,35.53Z" transform="translate(-17.08 -0.51)" fill="#fff"/>
	<path d="M116.74,160.84a20.15,20.15,0,0,1,20.17-20.18h166.3a20.18,20.18,0,0,1,0,40.35H136.91A20.15,20.15,0,0,1,116.74,160.84Z" transform="translate(-17.08 -0.51)" fill="#fff"/>
	<path d="M200.78,236.41A20.14,20.14,0,0,1,221,216.24h82.26a20.17,20.17,0,1,1,0,40.34H221A20.15,20.15,0,0,1,200.78,236.41Z" transform="translate(-17.08 -0.51)" fill="#fff"/>
</svg>