<svg xmlns="http://www.w3.org/2000/svg" viewBox="0 0 373.52 373.52"><title>Asset 1</title><path d="M303.52,0H70A70.06,70.06,0,0,0,0,70V303.52a70.06,70.06,0,0,0,70,70H303.52a70.06,70.06,0,0,0,70-70V70a70.06,70.06,0,0,0-70-70ZM70,28H303.52a42.06,42.06,0,0,1,42,42V92.06H28V70A42.06,42.06,0,0,1,70,28ZM303.52,345.52H70a42.06,42.06,0,0,1-42-42V120.06H345.52V303.52a42.06,42.06,0,0,1-42,42Zm-205-159.61a13.52,13.52,0,0,1,0,19.61,10,10,0,0,1-4.48,3.07,11.22,11.22,0,0,1-5.31,1.12,12,12,0,0,1-5.33-1.12,10.12,10.12,0,0,1-4.49-3.07A9.88,9.88,0,0,1,75.88,201a11.26,11.26,0,0,1-1.12-5.32,13.17,13.17,0,0,1,4.18-9.8,13.78,13.78,0,0,1,15.13-3.08,10,10,0,0,1,4.48,3.08Zm68.33,4.48a11.63,11.63,0,0,1,1.12,5.32,15.27,15.27,0,0,1-3.94,9.81,17,17,0,0,1-4.76,3.07,11.13,11.13,0,0,1-5.3,1.12,12,12,0,0,1-5.33-1.12,13,13,0,0,1-4.49-3.07,12.69,12.69,0,0,1-3.06-4.49,17.92,17.92,0,0,1-1.12-5.32,16.22,16.22,0,0,1,1.12-5.32,12.65,12.65,0,0,1,3.06-4.48,10.14,10.14,0,0,1,4.49-3.08,14.07,14.07,0,0,1,10.63,0,12.5,12.5,0,0,1,4.76,3.08,12.17,12.17,0,0,1,2.82,4.48Zm65.52,0a13.22,13.22,0,0,1,0,10.64,14.58,14.58,0,0,1-12.88,8.68,11.34,11.34,0,0,1-5.34-1.12,11,11,0,0,1-4.75-3.07,12,12,0,0,1-2.79-4.49,13.14,13.14,0,0,1,0-10.64,12,12,0,0,1,2.79-4.48,14.17,14.17,0,0,1,15.39-3.07,11.56,11.56,0,0,1,4.48,3.07,13,13,0,0,1,3.1,4.48Zm65.24,0a11.38,11.38,0,0,1,1.12,5.32,12,12,0,0,1-1.12,5.32,10.16,10.16,0,0,1-3.09,4.49,13.57,13.57,0,0,1-19.61,0,9.88,9.88,0,0,1-3.06-4.49,11.89,11.89,0,0,1-1.12-5.32,11.26,11.26,0,0,1,1.12-5.32,12.42,12.42,0,0,1,3.06-4.75,14.18,14.18,0,0,1,15.13-2.8,12,12,0,0,1,4.48,2.8,12.81,12.81,0,0,1,3.09,4.75Zm-196,74.2a11.38,11.38,0,0,1,1.12,5.32,12,12,0,0,1-1.12,5.32,10.07,10.07,0,0,1-3.09,4.48,9.9,9.9,0,0,1-4.48,3.08,11.24,11.24,0,0,1-5.31,1.12,12.24,12.24,0,0,1-5.33-1.12,10.14,10.14,0,0,1-4.49-3.08,9.86,9.86,0,0,1-3.06-4.48,11.89,11.89,0,0,1-1.12-5.32,11.26,11.26,0,0,1,1.12-5.32,12.46,12.46,0,0,1,3.06-4.76A14.22,14.22,0,0,1,94.06,257a12.08,12.08,0,0,1,4.49,2.8,12.93,12.93,0,0,1,3.09,4.76Zm62.43-4.75h0A15.1,15.1,0,0,1,168,269.91a15.26,15.26,0,0,1-3.93,9.8,12.58,12.58,0,0,1-4.76,3.08,11.19,11.19,0,0,1-5.31,1.12,12.24,12.24,0,0,1-5.33-1.12,10.05,10.05,0,0,1-4.48-3.08,12.46,12.46,0,0,1-3.07-4.48,18,18,0,0,1-1.12-5.32,15.54,15.54,0,0,1,4.19-10.08,12.38,12.38,0,0,1,4.48-2.8,14.1,14.1,0,0,1,10.64,0,13.26,13.26,0,0,1,4.76,2.8Zm65.24.27a14.33,14.33,0,0,1,4.21,9.8,18.64,18.64,0,0,1-1.12,5.32,14.58,14.58,0,0,1-12.88,8.68,11.3,11.3,0,0,1-5.33-1.12,10.8,10.8,0,0,1-4.76-3.08,15.39,15.39,0,0,1-3.91-9.8,14,14,0,0,1,3.91-9.8,10.8,10.8,0,0,1,4.76-3.08,14.07,14.07,0,0,1,10.63,0,11.62,11.62,0,0,1,4.49,3.08Z" fill="#fff"/></svg>