
<svg width="420px" height="404px" viewBox="0 0 420 404" version="1.1" xmlns="http://www.w3.org/2000/svg" xmlns:xlink="http://www.w3.org/1999/xlink">
    <g stroke="none" stroke-width="1" fill="#ffffff" fill-rule="evenodd">
        <path d="M350,274.98 C350,279.6206 348.1562,284.0698 344.875,287.351 C341.5938,290.6362 337.1406,292.4799 332.5,292.4799 C327.8594,292.4799 323.4062,290.6361 320.125,287.351 C316.8438,284.0698 315,279.6205 315,274.98 C315,270.3355 316.8438,265.8862 320.125,262.605 C323.4062,259.3238 327.8594,257.48 332.5,257.48 C337.1406,257.48 341.5938,259.3238 344.875,262.605 C348.1562,265.8862 350,270.3355 350,274.98 Z M332.5,187.48 C327.8594,187.48 323.4062,189.3238 320.125,192.605 C316.8438,195.8862 315,200.3355 315,204.98 C315,209.6206 316.8438,214.0698 320.125,217.351 C323.4062,220.6362 327.8594,222.4799 332.5,222.4799 C337.1406,222.4799 341.5938,220.6361 344.875,217.351 C348.1562,214.0698 350,209.6205 350,204.98 C350,200.3355 348.1562,195.8862 344.875,192.605 C341.5938,189.3238 337.1406,187.48 332.5,187.48 Z M420,146.531 L420,333.431 C420,351.993 412.625,369.802 399.496,382.927 C386.371,396.056 368.566,403.431 350,403.431 L70,403.431 C51.434,403.431 33.629,396.056 20.504,382.927 C7.375,369.802 0,351.993 0,333.431 L0,146.531 C0,127.969 7.375,110.164 20.504,97.035 C33.629,83.906 51.434,76.531 70,76.531 L168.176,76.531 L122.5,30.332 C118.6719,25.8008 117.3984,19.637 119.1211,13.961 C120.8438,8.2813 125.3242,3.863 131.0271,2.223 C136.7263,0.5824 142.8711,1.94175 147.3511,5.8324 L209.9991,69.0084 L272.3001,5.8324 C276.6751,1.3324 283.1201,-0.4918 289.2061,1.0472 C295.2959,2.5863 300.0971,7.2542 301.8081,13.2972 C303.519,19.3363 301.874506,25.8322 297.4995,30.3322 L251.8235,76.5312 L349.9995,76.5312 C368.5655,76.5312 386.3705,83.9062 399.4955,97.0352 C412.6245,110.1642 419.9995,127.9692 419.9995,146.5312 L420,146.531 Z M385,146.531 L385,146.527094 C385,137.245894 381.3125,128.343094 374.75,121.781094 C368.1836,115.214694 359.281,111.527094 350,111.527094 L70,111.527094 C60.7188,111.527094 51.816,115.214594 45.25,121.781094 C38.6875,128.343594 35,137.246094 35,146.527094 L35,333.427094 C35,342.708294 38.6875,351.611094 45.25,358.173094 C51.8164,364.739494 60.719,368.427094 70,368.427094 L350,368.427094 C359.2812,368.427094 368.184,364.739594 374.75,358.173094 C381.3125,351.610594 385,342.708094 385,333.427094 L385,146.531 Z" id="Shape"></path>
    </g>
</svg>